<?xml version="1.0" encoding="UTF-8"?>
<svg id="katman_3" xmlns="http://www.w3.org/2000/svg" xmlns:xlink="http://www.w3.org/1999/xlink" version="1.1" viewBox="0 0 1500 1500">
  <!-- Generator: Adobe Illustrator 29.6.1, SVG Export Plug-In . SVG Version: 2.1.1 Build 9)  -->
  <defs>
    <style>
      .st0, .st1, .st2, .st3 {
        fill: none;
      }

      .st4 {
        fill: #c98e57;
      }

      .st5 {
        fill: #29190f;
      }

      .st5, .st6, .st7, .st8, .st9, .st10, .st11, .st12, .st13, .st14, .st15, .st16, .st17, .st18, .st19, .st20, .st21, .st22, .st23, .st24, .st25, .st1, .st2, .st3, .st26, .st27, .st28 {
        stroke-linecap: round;
        stroke-linejoin: round;
      }

      .st5, .st6, .st7, .st8, .st9, .st10, .st11, .st12, .st13, .st14, .st15, .st16, .st17, .st18, .st19, .st20, .st23, .st24, .st25, .st2, .st27, .st28 {
        stroke-width: 9.3px;
      }

      .st5, .st17, .st19 {
        stroke: #140a07;
      }

      .st6 {
        fill: #bc6d33;
      }

      .st6, .st7, .st8, .st9, .st10, .st11, .st12, .st13, .st14, .st15, .st16, .st18, .st20, .st21, .st22, .st23, .st24, .st25, .st1, .st2, .st3, .st26, .st27, .st28 {
        stroke: #26130c;
      }

      .st29 {
        fill: #83481e;
      }

      .st7 {
        fill: #c6793f;
      }

      .st30 {
        fill: #85481c;
      }

      .st31 {
        fill: #8b4a1e;
      }

      .st32 {
        fill: #dbbf74;
      }

      .st8 {
        fill: #9b5321;
      }

      .st33 {
        fill: #955222;
      }

      .st9 {
        fill: #c07338;
      }

      .st10 {
        fill: #864118;
      }

      .st34 {
        fill: #a9652f;
      }

      .st35 {
        fill: #cd9d54;
      }

      .st11 {
        fill: #7c3b18;
      }

      .st12 {
        fill: #feecbd;
      }

      .st13 {
        fill: #af6128;
      }

      .st14 {
        fill: #c57037;
      }

      .st15 {
        fill: #be7136;
      }

      .st36 {
        fill: #8f5022;
      }

      .st16 {
        fill: #b86b33;
      }

      .st17 {
        fill: #362213;
      }

      .st18 {
        fill: #f0ab69;
      }

      .st37 {
        fill: #6a3315;
      }

      .st19 {
        fill: #261a10;
      }

      .st20 {
        fill: #aa5e27;
      }

      .st21, .st22, .st3 {
        stroke-width: 13.95px;
      }

      .st21, .st38 {
        fill: #fbc169;
      }

      .st39 {
        fill: #733815;
      }

      .st22 {
        fill: #28414c;
      }

      .st23 {
        fill: #743e19;
      }

      .st24 {
        fill: #63280d;
      }

      .st40 {
        fill: #223740;
      }

      .st41 {
        fill: #4c2110;
      }

      .st42 {
        fill: #673115;
      }

      .st43 {
        fill: #6e3616;
      }

      .st25 {
        fill: #914115;
      }

      .st44 {
        fill: #633015;
      }

      .st45 {
        fill: #7e441c;
      }

      .st46 {
        fill: #a26334;
      }

      .st1, .st26 {
        stroke-width: 4.65px;
      }

      .st47 {
        fill: #a96431;
      }

      .st48 {
        fill: #95572a;
      }

      .st49 {
        fill: #a26130;
      }

      .st26, .st50 {
        fill: #26130c;
      }

      .st27 {
        fill: #733614;
      }

      .st51 {
        clip-path: url(#clippath);
      }

      .st52 {
        fill: #5d2e14;
      }

      .st28 {
        fill: #c7763b;
      }
    </style>
    <clipPath id="clippath">
      <path class="st0" d="M81.92,1050.25c51.08,66.32,276.78,303.92,648.41,328.35,1.73.11,2.93,6.79,5.21,13.04,1.87,5.13,5.01,8.26,5.01,8.26,1.41,25.77-2.13,66.31,15.87,66.37,18.89.06,14.89-40.12,17.63-65.35,0,0,2.76-2.31,5.47-6.94,3.29-5.63,6.68-13.36,8.84-13.35,3.79.02,7.6.01,11.42-.02,19.52-.15,109.52-1.7,214.45-21.53,2.75-.52,1.57,14.37,3.97,26.84,2.04,10.64,7.96,17.23,8.01,18.53,1.28,28.6-2.27,64.5,17.02,66.47s13.6-34.14,16.45-65.81c0,0,8.78-9.25,12.62-23.67,4.26-16,3.69-35.94,6.56-36.68,125.99-32.3,257.04-93.73,306.63-210.59,8.75-20.62,9.13-29.22,19.64-133.93,43.24-430.72,57.12-464.71,55.36-607.14-2.53-204.91-3.8-307.37-39.29-344.64-99.19-104.18-223.47,29.69-641.14,0-68.24-4.85-274.81-23.34-391,67.86-6,4.71-11.35,9.39-48.21,39.29-164.17,133.13-165.5,127.41-180.36,144.64-78.86,91.49,29.5,170.67-23.21,367.86-38.17,142.78-125.53,213.89-89.29,321.43,4.22,12.53,12.67,33.1,33.93,60.71h0Z"/>
    </clipPath>
  </defs>
  <g class="st51">
    <g>
      <ellipse id="filler" class="st50" cx="333.51" cy="2042.57" rx="5.77" ry="10" transform="translate(-851.9 346.07) rotate(-25.67)"/>
      <g>
        <g>
          <path class="st28" d="M1338.7,1916.56s54.4-7.58,77.82,35.12c23.41,42.7,28.92,145.99,12.4,212.11-16.53,66.11-70.24,145.65-118.79,121.89,0,0-38.22,27.19-55.26,4.3s22.38-61.11,22.38-61.11c0,0-38.39,20.14-45.62-2.58-7.23-22.73,12.4-33.57,12.4-33.57,0,0-8.26-27.37,7.23-74.89,15.49-47.52-29.96-98.31,14.46-156.32,44.42-58.02,73-44.93,73-44.93l-.02-.02h0Z"/>
          <path class="st47" d="M1334.23,2101.29s-13.04,54.41-20.52,70.7c-7.47,16.29-44.93,28.18-45.37,0s36.4-46.68,25-100.83c-11.41-54.15,21.98-114.81,21.98-114.81l-27.8-12.78c-5.65,5.57-11.68,12.34-18.12,20.75-25.48,33.28-19.92,64.19-14.54,94.09,3.78,20.99,7.34,40.81.81,60.85-14.77,45.29-7.28,71.86-7.2,72.11l1.08,3.6-3.29,1.82c-.66.37-16.21,9.22-10.21,28.09,1.03,3.25,3.44,7.58,12.29,7.58,11.88,0,26.6-7.63,26.75-7.7l5.39,7.45c-10.15,9.84-33.87,38.91-21.89,55,3.66,4.91,8.71,7.29,15.45,7.29,15.43,0,33.22-12.48,33.39-12.61l1.47-1.04c-4.7-12.28-7.89-28.41.39-40.87,15.41-23.17,31.27-66.22,33.27-89.52s-8.33-49.16-8.33-49.16h0Z"/>
          <g>
            <path class="st2" d="M1244.01,2192.71s1.72,23.76,31.85,22.21,42.01-54.75,47.17-76.44,19.63-58.88,19.63-58.88"/>
            <path class="st2" d="M1310.12,2285.68s-19.63-16.01-2.58-42.87c17.04-26.86,35.12-70.69,35.12-95.51s-6.2-46-6.2-46"/>
            <path class="st2" d="M1277.24,2228.87s17.42-9.36,23.34-29.99"/>
          </g>
        </g>
        <g>
          <path class="st21" d="M1180.14,960.42s64.4-7.11,103.13,50.74c38.73,57.85,122.75,393.91,144.78,475.17,22.04,81.26,42.7,242.75,43.73,276.84s-2.07,100.2-23.76,116.73c0,0-1.03,91.76-9.81,96.93-8.78,5.16-165.79,19.11-213.83,6.2,0,0-13.95-38.74-12.4-93.48,0,0-37.36-1.21-42.52-114.83-5.16-113.63-13.43-319.19-17.56-388.4s-38.22-203.5-38.22-270.64,12.05-147.27,66.45-155.24v-.02h.01Z"/>
          <path class="st35" d="M1140.64,1263.13c8.39,46.78,16.32,90.97,18.22,122.76,2.78,46.49,7.32,152.28,11.72,254.59,2.11,49.17,4.14,96.52,5.84,133.91,4.7,103.29,35.75,108.16,35.78,108.18l6.95.22-.2,6.94c-1.23,43.45,7.65,76.87,10.86,87.43,12.86,2.77,33.56,4.23,60.33,4.23,62.55,0,133.28-7.37,143.75-10.31,3.89-8.74,6.73-53.31,7.16-91.25l.04-3.4,2.71-2.07c15.35-11.69,21.58-59.67,21.18-102.44-26.44,9.93-16.99,72.85-49.52,81.34-40.51,10.57-112.74,0-112.74,0,29.95-158.53-10.57-295.93-9.91-343.49.66-47.56-7.12-102.75,16.95-142.09s24.66-89.84,2.94-77.51c-21.73,12.33-34.64-4.11-34.64-4.11,28.57-27.7,34.64-78.68,34.64-95.71s-3.52-10.57-31.71,2.35c-28.18,12.92-53.43-73.65-53.43-73.65l-95.36,96.17c2.67,15.77,5.56,31.92,8.43,47.93v-.02h.01Z"/>
          <path class="st38" d="M1259.27,1911.22s40.49,4.84,75.29,2.64,81.48-16.29,85.88-2.64,4.84,44.19-7.93,50.28c-12.77,6.09-108.33,14.49-171.75,2.58,0,0-7.05-10.15-5.28-32.16,1.76-22.02,23.78-20.7,23.78-20.7h.01Z"/>
          <path class="st3" d="M1211.99,1889.53s146.51,14.63,236.04-9.64"/>
          <path class="st2" d="M1397.85,1889.23s8.02,39.73,0,74.85"/>
          <path class="st2" d="M1277.24,1893.91s-6.2,40.73,0,70.17"/>
          <path class="st2" d="M1334.57,1893.91s2.58,48.48,0,67.59"/>
        </g>
      </g>
      <g>
        <g>
          <g>
            <path class="st14" d="M289.88,3071.04s-12.91,1.08-15.49,23.29,0,50.14,0,50.14c0,0-1.55,58.32,160.11,70.2,161.66,11.88,186.97-53.2,186.45-61.46s3.1-58.36,3.1-58.36c0,0,.52-13.95-14.98-15.49-15.49-1.55-319.19-8.31-319.19-8.31h0Z"/>
            <path class="st1" d="M282.65,3110.86s28.41,41.84,137.9,50.1c109.5,8.26,189.55-43.39,189.55-43.39"/>
          </g>
          <path class="st24" d="M338.43,2899.96s-18.59,77.13-27.55,98.48c-8.95,21.35-24.1,33.74-28.23,93.66,0,0,29.61,50.96,153.57,52.34,123.96,1.38,179.05-34.43,179.05-57.16s.69-112.25,0-134.98.69-44.76-6.2-52.34-104.37-45.45-159.96-32.37c-55.59,13.08-110.68,32.37-110.68,32.37Z"/>
          <path class="st41" d="M338.62,2918.64s-10.19,42.14-15.04,57.99c-4.84,15.85-11.67,34.35-18.06,42.72-6.39,8.37-12.99,35.01-12.99,35.01,0,0,20.26-28.18,48.44-34.35,0,0-4.84-27.96,11.67-36.99,0,0-6.17-25.76,3.74-39.63,9.91-13.87,61.87-24.22,78.83-25.98,16.95-1.76,56.15-.28,77.51,6.69,21.36,6.97,72.22,37.35,85.65,35.37s13.21-17.17,13.21-17.17c0,0-66.08-49.76-129.92-52.85-63.84-3.08-143.05,29.21-143.05,29.21v-.02h0Z"/>
          <path class="st2" d="M295.05,3080.39s38.74-70.24,151.33-68.18c112.59,2.07,149.78,71.79,149.78,71.79"/>
          <path class="st25" d="M372.34,2961.82c-2.77-2.82-3.55-7.04-2-10.68,2.58-6.04,9.76-15.01,29.81-19.25,31.76-6.71,70.76-10.59,89.09-5.42,18.34,5.16,60.43,15.49,57.33,33.57s-34.86-4.91-67.92-10.85c-33.06-5.94-70.24,10.85-70.24,10.85,0,0-23.02,15.06-36.07,1.78h0Z"/>
          <path class="st41" d="M546.74,2935.38s24.34,29.65,2.03,44.04c0,0,10.94,19.22,0,36.4,0,0,45.21,20.84,61.07,51.67l1.31-121.21-64.41-10.9h0Z"/>
          <path class="st25" d="M365.11,3003.88c-2.77-2.48-3.55-6.17-2-9.37,2.58-5.3,9.76-13.17,29.81-16.88,31.76-5.89,70.76-9.29,89.09-4.76,18.34,4.53,60.43,13.59,57.33,29.44-3.1,15.85-34.86-4.3-67.92-9.51s-70.24,9.51-70.24,9.51c0,0-23.02,13.21-36.07,1.56h0Z"/>
        </g>
        <g>
          <g>
            <path class="st14" d="M875.24,2969.34s-44.07,3.62-45.62,26.34c-1.55,22.73-2.58,61.46,3.62,65.08s195.75,67.14,349.15,76.96c153.4,9.81,215.89-28.41,216.93-44.42,1.03-16.01-2.07-59.4-2.07-59.4,0,0-13.43-9.3-19.11-9.81-5.68-.52-502.89-54.75-502.89-54.75h-.01Z"/>
            <path class="st1" d="M835.29,3008.59s1.55,11.36,91.94,34.09,157.01,36.67,263.93,42.35c106.91,5.68,186.97-3.58,199.88-30.71"/>
          </g>
          <path class="st24" d="M841.15,2892.04v67.83c0,11.02-6.89,35.81,12.4,47.52,19.28,11.71,139.11,44.76,298.19,57.85,159.08,13.08,225.88,3.44,234.14-22.73s-24.1-48.25-46.83-60.97-90.9-32-130.84-56.1-57.16-52.34-70.59-73c-13.43-20.66-91.94-35.81-133.25-24.79-41.32,11.02-161.14,24.1-163.21,64.39h-.01Z"/>
          <path class="st41" d="M845.21,2903.75s1.1,44.92,1.54,50.86c.44,5.95,52.42.88,76.19,49.32,0,0-4.41-51.19-3.09-55.54,1.32-4.35,41.76,9.16,61.18-.9,0,0,56.84,41.24,101.54,36.07,0,0-69.75-24.21-82.54-49.7-12.8-25.49,35.21,8.49,47.98,10,12.77,1.5,22.02,23.47,38.31,25.48s17,14.78,27.65,19.18c10.66,4.4,26.34,16.24,35.89,14.28,9.55-1.95,35.92-40.47,103.33-44.99,0,0-98.73,21.04-108.75,9.57s43.94-26.9,43.77-30.85c-.17-3.94-26.6-22.44-54.34-12.31s-28.18,20.7-29.06,6.61c-.88-14.09,28.4-28.94,45.86-35.09,17.45-6.15-28.67-49.46-28.67-49.46,0,0-110.99-42.28-276.79,57.47h0Z"/>
          <path class="st25" d="M1123.06,2984.49s-6.2-17.56,11.36-28.58c17.56-11.02,69.04-28.23,93.74-19.8,24.71,8.43,13,22.21,2.32,20.49-10.67-1.72-37.52-2.66-55.78,7.58-22.73,12.74-36.15,37.88-51.65,20.32h.01Z"/>
          <path class="st25" d="M1082.78,2952.3s-4.76-17.39,31.19-29.78c35.95-12.4,68.74-14.77,76.07-9.42s14.63,16.31-3.62,16.65c-18.25.34-30.65-5.16-51.99,8.26-21.35,13.43-40.29,26.86-51.65,14.29h0Z"/>
          <path class="st25" d="M1032.51,2919.07s-7.92-24.1,35.12-34.78c43.04-10.67,64.7-13.06,77.47-7.92,12.77,5.14,28.58,14.96,22.73,20.05s-30.24-7.99-53.86-1.45-38.42,19.97-47.72,24.1c-9.3,4.13-27.2,13.77-33.74,0h0Z"/>
          <path class="st2" d="M1109.64,3054.32s47.52-100.78,165.28-97.01"/>
          <path class="st2" d="M981.03,2910.4s29.44,52.22,110.53,75.98"/>
          <path class="st2" d="M881.86,2938.35s37.19,32.54,41.84,70.24"/>
        </g>
        <g>
          <path class="st22" d="M352.2,1973.03s-35.81,260.31-31.68,382.89.71,279.59-.33,348.46c-1.05,68.87.33,86.77-13.44,112.94s-2.75,44.07,0,67.49c2.75,23.41,6.89,52.34,6.89,52.34,0,0,96.41-41.32,155.64-37.19,59.22,4.13,154.26,52.34,154.26,52.34,0,0,31.68-27.55,31.68-64.73s-9.64-85.39-6.89-115.69,78.51-358.1,89.52-399.42c11.02-41.32,41.57-133.6,48.33-122.58s15.03,199.71,20.53,269.95c5.51,70.24,13.77,228.63,13.77,247.91s-6.89,45.45,0,99.17c6.89,53.71,4.13,50.96,24.79,52.34,20.66,1.38,60.6,6.89,111.56-11.02,50.96-17.9,100.54-57.85,134.98-59.22,34.43-1.38,56.47,16.53,56.47,16.53,0,0,17.9-31.68,11.02-60.6-6.89-28.92-17.9-46.83-17.9-73s42.7-353.97,50.96-422.83c8.26-68.87,23.41-117.07,23.41-154.26s12.4-159.77,12.4-159.77c0,0-31.68-60.6-37.19-60.6s-819.5-9.64-819.5-9.64l-19.28,48.21v-.02h0Z"/>
          <path class="st40" d="M391.26,2093.97s196.26,41.69,438.1,45.54,383.93-62.5,383.93-62.5l5.14-88.67-837.59-14.56,10.42,120.18h0Z"/>
          <path class="st40" d="M359,1974.82c-2.23,16.44-35.45,263.73-31.5,380.87,3.67,108.74,1.44,242.18.11,321.91l-.44,26.89c-.11,7.31-.2,14.04-.27,20.26-.66,53.07-.88,70.94-13.97,95.81-8.96,17.02-6.04,30.06-2.65,45.14,1.3,5.79,2.64,11.77,3.4,18.28,1.69,14.39,3.92,30.95,5.37,41.49,14.51-5.16,29.64-10.28,29.64-10.28,0,0-2.06-9.98,2.64-20.55s105.98-32.29,123.89-35.72c14.19-2.72,84.05,11.04,112.48,16.87,9.35,8.89,20.93,23.03,20.22,38.23-.43,9.35-3.4,14.28-4.32,21.06,8.16,3.72,14.63,6.82,18.62,8.78,7.64-7.86,26.01-29.53,26.01-56.3,0-16.24-1.91-34.98-3.77-53.09-2.41-23.54-4.68-45.78-3.09-63.23,2.84-31.25,79.52-362.29,89.73-400.58,4.84-18.14,14.22-48.96,24.29-76.94,18.61-51.73,24.11-51.73,29.44-51.73,2.98,0,5.63,1.54,7.28,4.24,4.68,7.62,8.14,53.49,15.54,178.85,2.18,36.9,4.24,71.75,6,94.2,5.33,68.03,13.8,227.99,13.8,248.46,0,5.68-.55,11.74-1.18,18.76-1.58,17.52-3.75,41.5,1.13,79.53.73,5.68,1.35,10.73,1.9,15.22,1.97,16.03,3.16,25.7,5.04,29.15.52.96,1.01,1.26,8.63,1.72l2.76.17c2.03.14,4.24.31,6.62.5,7.72.61,17.33,1.37,28.46,1.37,25.64,0,49.76-4.09,73.71-12.51,6.49-2.28,12.95-4.96,19.38-7.84,41.02-32.89,100.1-93.58,166.31-72.18,0,0,12.01-12.99-26.45-20.33s-87.78-11.45-93.07-10.57c-5.28.88-37.17-11.53-125.25,26.86l-29.76-551.79s45.23-40.37,67.39-77.73c22.16-37.36,31.55-107.81,31.55-107.81l-139.46,6.52s-22.3,97.99-34.63,120.89-41.69,15.27-69.87,96.88c-28.18,81.62-82.79,277.73-90.42,305.33s-19.02,243.9-30.45,253.07c-11.43,9.17-23.5,3.37-23.5,3.37,0,0,.07.05.09.06-39.08-17.67-82.71-27.6-95.73-28.05-15.72-.54-29.62,4.65-46.58,9.35-16.96,4.7-23.86,7.46-18.32-77.51,5.53-84.97,80.04-184.96,80.04-207.86s-28.18-1.76-63.41-89.84,36.26-456.4,36.26-456.4c-4.7-37.01-49.03-61.15-60.41-83.84-14.81-.18-25.82-.31-32.02-.38l-17.19,42.97h-.02Z"/>
          <g>
            <path class="st2" d="M923.79,1976.82s-1.31,135.03-11.36,183.87c-14.46,70.24-121.89,84.7-121.89,84.7"/>
            <path class="st2" d="M849.41,2016.07s5.16,155.98-40.29,208.66"/>
            <path class="st2" d="M841.15,2251.59s14.46,220.02,18.59,291.3,6.2,186.97,10.33,231.39-5.16,92.97,5.16,117.76"/>
            <path class="st2" d="M1137.61,2808.37s-63.01-26.86-100.2-8.26-83.67,49.58-83.67,49.58"/>
            <path class="st2" d="M360.81,2872.41s97.2-36.49,119.83-34.09c48.55,5.16,121.89,41.32,121.89,41.32"/>
            <path class="st2" d="M360.81,2204.08s-5.16,235.52-6.2,301.63c-1.03,66.11,3.1,172.51,0,201.43s-3.1,83.67-14.46,108.46-6.2,44.42-6.2,56.81"/>
          </g>
        </g>
      </g>
      <g>
        <path class="st21" d="M1251.88,1095s11.06,107.95,0,163.73,11.06,131.88,11.06,153.91,7.58,191.45,11.02,230.7c3.44,39.25,11.02,113.63,8.95,176.3-2.07,62.67-36.33,101.4-36.33,101.4l-7.23,92.97s-50.62,72.31-402.86,79.54c-376.97,7.74-581.22-92.97-581.22-92.97v-79.88c-69.55-32.37-63.36-200.4-77.47-264.44-14.12-64.04-29.27-59.91-91.25-227.26-61.98-167.34,0-393.91,13.08-410.44,13.08-16.53,57.54-50.17,57.54-50.17,0,0,244.95-56.06,348.25-56.06s234.14-8.26,286.48-6.89c52.34,1.38,161.29,18.41,173.61,20.22s128.02,21.1,132.15,23.85,98.87-3.17,115,10.9c15.15,13.21,19.28,40.75,19.28,40.75"/>
        <path class="st35" d="M93.1,1426.58c31.52,85.09,51.15,126.25,64.14,153.49,12.65,26.53,20.29,42.54,27.38,74.69,3.7,16.76,5.95,39.69,8.57,66.24,7.11,72.15,16.85,170.97,65.04,193.39,2.46,1.14,4.03,3.61,4.03,6.32v75.43c29.96,13.47,231.53,97.46,574.11,90.45,315.76-6.48,386.97-66.05,396.23-75.43l7.05-90.65c.12-1.51.72-2.94,1.72-4.08.32-.36,32.63-37.81,34.59-97.02,1.84-55.93-4.18-122.67-7.78-162.56l-1.15-12.9c-1.12-12.74-2.69-39.61-4.29-70.72-11.74,48.01-17.37,109.63-16.13,164.26,2.58,113.91-34.6,132.93-34.6,132.93-374.46,89.18-599.18,33.82-648.51,9.47-49.32-24.35-34.06-68.42-71.63-113.04-37.58-44.62-92.77-51.67-93.19-128.5s34.47-61.74,54.49-53.1,41.04,5.45,0-59.47c-41.04-64.92-16.5-164.08-57.56-253.33s-130.32-105.69-130.32-105.69l-198.63,105.52c1.08,51.86,8.4,105.53,26.46,154.3h-.02,0Z"/>
        <path class="st38" d="M619.26,2021.55s335.35,35.51,547.68-47.45c0,0,33.78-4.89,38.17,23.94,4.38,28.83-132.91,77.77-337.53,73.12s-257.56-5.16-267.25-17.56-10.47-34.56,18.94-32.05h-.01,0Z"/>
        <g>
          <path class="st3" d="M470.83,1974.1s-23.77-65.11-16.19-79.58c7.58-14.46,68.87-81.26,97.79-170.1s24.79-112.94,30.3-115c5.51-2.07,347.77,24.1,577.78-23.41,0,0,14.46-4.13,17.9,6.89,3.44,11.02,43.29,176.36,103.59,239.68"/>
          <path class="st2" d="M1233.51,1870.42s-72.31-174.92-90.21-252.05"/>
          <path class="st2" d="M639.89,1638.35s-10.33,150.13-129.47,272.71"/>
        </g>
        <g>
          <path class="st3" d="M255.28,1920.69s256.01,84.36,533.02,87.46c277.01,3.1,458.3-87.11,458.3-87.11"/>
          <g>
            <path class="st2" d="M401.41,1959.6s-6,40.8-5.48,67.14"/>
            <path class="st2" d="M495.8,1978.74s-7.93,41.81-7.93,68.15"/>
            <path class="st2" d="M578.22,1991.84s-3.95,49.19-4.62,69"/>
            <path class="st2" d="M666.07,2001.85s-5.17,45.56-3.11,64.67"/>
            <path class="st2" d="M755.92,2007.43s-6.88,47.73-4.98,63.74"/>
            <path class="st2" d="M837.53,2008.23s5.16,40.55,2.07,62.93"/>
            <path class="st2" d="M929.98,2001.85s8.26,29.03,5.68,61.57"/>
            <path class="st2" d="M1016.32,1989.5s2.66,37.76,0,64.1"/>
            <path class="st2" d="M1084.97,1975.17s2.1,44.87,0,73.27"/>
            <path class="st2" d="M1153.25,1956.36s2.21,44.57,0,74.01"/>
            <path class="st2" d="M323.4,1940.43s-8.04,36.73-7.01,55.32"/>
          </g>
        </g>
        <path class="st35" d="M1201.44,960.42s12.33,5.31,20.04,28.21c0,0-13.28,51.67-72.59,88.66-59.3,36.99-162.06,46.97-182.61,39.34s235.16-156.21,235.16-156.21h0Z"/>
      </g>
      <path class="st35" d="M156.72,979.31s12.83-21.14,218.38,41.1c205.55,62.24,425.15,124.48,453.34,108.04,28.18-16.44-500.27-219.66-503.79-216.69-3.52,2.96-156.74,39.08-167.93,67.55h0Z"/>
      <g>
        <g>
          <path class="st28" d="M189.68,1978.74s77.47,3.42,111.05,29.41c33.57,26,48.03,98.31,54.75,149.95,6.71,51.65,24.24,95.55-9.83,108.98-34.07,13.43-62.48-79.02-62.48-79.02,0,0-5.68,53.71,11.36,87.8,17.04,34.09,35.12,61.46,23.76,75.41s-58.88-3.62-58.88-3.62c0,0-36.67,26.34-96.07-21.69,0,0-50.62-7.23-74.37-67.66-23.76-60.43-25.82-182.15,0-227.43s100.72-52.14,100.72-52.14h0Z"/>
          <path class="st47" d="M355.96,2190.11c-1.81-10.07-3.68-20.49-5.1-31.4-10.01-77-28.33-127.79-52.98-146.88-30.93-23.95-102.61-28.14-108.08-28.43-5.17.55-73.3,8.58-96.8,49.78-24.22,42.46-24.07,161.48.29,223.42,22.41,57.01,68.75,64.47,70.71,64.76l1.27.18,1,.81c22.86,18.49,44.75,27.86,65.04,27.86,16.16,0,25.33-6.29,25.39-6.34l2.01-1.44,2.32.85c.24.09,23.8,8.71,40.74,8.71,6.5,0,10.97-1.27,12.92-3.67,7.52-9.22-3.25-29.84-15.72-53.71-2.79-5.35-5.71-10.92-8.59-16.69-17.45-34.9-12.06-88.12-11.83-90.37l9.07-.88c6.59,21.44,28.64,77.08,51.2,77.08,1.7,0,3.43-.34,5.13-1.01,22.32-8.79,19.29-32.14,12.02-72.65v.02h-.01ZM319.85,2227.19c-7.13-2.35-32.6-68.7-32.6-68.7,0,0-36.77,36.69-35.6,68.84,1.17,32.15,17.03,78.54,15.27,93.22s-38.09,0-38.09,0c0,0-68.8,7.61-109.36-65.28-7-26.56-11.96-59.4-10.89-97.95,3.16-112.95,33.2-56.75,138.66-83.67,27.74-7.08,48.51-14.42,64.13-21.39,7.29,23.83,15.12,55.63,17.19,87.26,4.11,63.01-1.6,90.02-8.73,87.67h.02Z"/>
          <path class="st2" d="M182.45,2192.71s-4.65,63.01,23.76,102.78c15.49,21.69,53.2,52.17,53.2,52.17"/>
          <path class="st2" d="M108.59,2210.79s4.65,72.83,54.75,115.18"/>
          <path class="st2" d="M283.17,2188.06s-1.55-32.54,8.26-48.55"/>
        </g>
        <g>
          <path class="st21" d="M48.51,1951.17s4.82,64.04,22.04,95.72c0,0,145.31,25.48,253.42-30.99,0,0,7.58-62.67-8.95-101.92,0,0,31.68-42.7,24.1-84.7-7.58-42.01-20.66-148.75-22.04-163.9s.69-14.46,2.07-32.37c1.38-17.9,4.13-36.5-4.13-55.78,0,0,23.69-148.75,25.27-181.8,1.58-33.06,17.42-128.78-14.25-205.22-31.68-76.44-138.23-205.18-207.88-190.05-69.65,15.13-146.09,383.56-157.8,508.89s4.82,270.64,16.53,321.6,46.83,106.05,71.62,120.51h0Z"/>
          <g>
            <path class="st35" d="M310.64,1646.06c.07-.5.15-1.06.23-1.6-23.35-24.79-66.82-59.46-125.82-56.9,0,0,77.6,50.95,130.05,120.96-2.58-20.8-4.47-37.13-4.96-42.51-.94-10.32-.37-14.15.5-19.95h0Z"/>
            <path class="st35" d="M334.83,1375.71c.03-.37.06-.7.1-1.08,1.93-21.53,4.67-52.67,3.31-86.39-12.39-21.32-41.53-58.57-95.86-63.51,0,0,35.9,37.31,62.12,88.63,10.73,21,21.43,43.31,30.34,62.34h-.01Z"/>
            <path class="st35" d="M309.29,1568.79c1.48-9.38,4.21-26.89,7.33-47.46-23.74-8.09-57.73-22.75-96.96-48.83,0,0,48.08,61.33,89.64,96.29h-.01,0Z"/>
          </g>
          <path class="st35" d="M311.7,1906.45l-3.64-12.48-280.71,27.09c8.65,11.22,17.26,19.76,24.66,24.08l3.16,1.85.27,3.65c.05.6,4.61,58.96,19.66,89.91,6.37.95,21.37,2.94,41.66,4.14-7.57-15.29-15.3-36.33-18.91-62.83,0,0,166.33-1.13,219.04-31.05-1.48-12-4.04-23.96-8.32-34.13l-1.54-3.66,2.36-3.19c.05-.07.95-1.32,2.29-3.38h.02Z"/>
          <path class="st35" d="M330.84,1862.61c-61.21,29.81-170.35,31.14-209.5,20.06-46.68-13.21-90.13-253.95-53.19-522.18,25.7-186.64,84.38-288.53,117.72-333.29-19.67-13.2-38.94-21.3-55.99-21.3-3.55,0-6.99.36-10.24,1.06-61.01,13.25-139.35,363.72-152.33,502.73-11.64,124.64,4.92,269.52,16.38,319.39,11.57,50.35,45.62,102.8,68.34,116.05l3.16,1.85.13,1.76c113.67,13.38,208.95-13.95,253.84-30.56-.2-.49-.36-1.02-.57-1.5l-1.54-3.66,2.36-3.19c.22-.29,15.4-21.23,21.43-47.22h0Z"/>
          <path class="st3" d="M48.51,1951.17s64.39,5.85,152.19-7.06,114.32-30.13,114.32-30.13"/>
          <path class="st2" d="M97.92,1955.99s-1.55,43.39,14.46,74.89"/>
          <path class="st2" d="M154.22,1955.99s-2.07,43.9,11.88,74.89"/>
          <path class="st2" d="M210.2,1942.66s7.54,40.19,10.64,78.41"/>
          <path class="st2" d="M264.75,1931.74s14.97,38.71,13.94,76.41"/>
          <g>
            <path class="st2" d="M315.02,1577.23s-75.89-81.95-99.49-109.5"/>
            <path class="st2" d="M316.85,1652.26s-42.99-64.01-135.95-64.7"/>
            <path class="st2" d="M340.85,1387.12s-50.02-118.41-104.3-167.99"/>
          </g>
        </g>
      </g>
      <g>
        <path class="st21" d="M857.5,1139.76c-32.02,0-132.22-26.86-311.96-92.97s-310.93-92.8-341.92-95.38-56.64,26.34-56.64,26.34c-50.27-44.07-26.25-90.86-26.25-90.86,2.75-20.66,25.48-41.32,31.68-72.31,6.2-30.99-.69-41.32,19.28-65.42s67.45-37.59,67.45-37.59c0,0-14.47,41.89,54.39,78.78,68.86,36.89,73.29,9.21,223.09,88.05,149.8,78.84,288.54,165.28,288.54,165.28l91.25,51.3s155.75-149.92,169.41-166.66c13.66-16.75,47.63-75.33,8.15-106.35l60.33-26.3s28.97,19.38,34.48,36.6-4.13,40.63,8.95,57.16c13.08,16.53,40.63,44.76,17.9,93.66-22.73,48.89-157.01,132.22-249.29,145.99"/>
        <path class="st35" d="M396.79,907.34s-117.41-59.56-147.92-90.09c-13.35-13.37-11.87-37.3-5.99-60-9.65-14.07-12-26.79-12.02-35.59-14.52,5.22-40.86,16.34-53.8,31.96-12.5,15.09-13.23,23.24-14.56,38.04-.61,6.79-1.3,14.49-3.26,24.3-3.52,17.6-11.85,31.8-19.2,44.32-6.06,10.32-11.29,19.24-12.4,27.54-.1.79-.34,1.55-.71,2.26-.82,1.63-19.24,39.7,19.87,78,4.08-3.77,10.45-9.04,18.43-13.67,1.24-14.42,4.59-30.61,12.57-42.66,18.26-27.57,114.4-36.46,218.99-4.42h0Z"/>
        <g>
          <path class="st2" d="M1021.4,1040.25s140.5-90.01,151.51-159.67"/>
          <path class="st2" d="M1134.3,795.68s9.9,28.21-54.94,116.07"/>
          <path class="st2" d="M177.8,847.71s133.6,22.45,218.99,59.63c85.39,37.19,175.61,81.26,175.61,81.26"/>
          <path class="st2" d="M236.55,712.37s-64.26,55.18,8.05,77.22"/>
        </g>
      </g>
      <g>
        <path class="st12" d="M757.48,1383.89s9.3-1.54,10.67,6.54c1.38,8.09,7.92,71.96-7.92,73.34-15.84,1.38-15.2-14.52-15-65.28,0,0-2.56-14.26,12.25-14.6Z"/>
        <path class="st12" d="M757.65,1402.14s-20.66,6.71-22.73-37.19c-2.07-43.9,11.88-67.66-3.62-163.21-11.32-69.82-22.73-138.42-4.13-144.62,18.59-6.2,26.25-9.74,41.61,64.34,19.85,95.77,20.54,145.01,19.51,184.78-1.03,39.77.86,95.38-30.65,95.89h.01Z"/>
        <path class="st32" d="M735.9,1201c10.44,64.38,7.67,96,5.23,123.9-1.15,13.15-2.24,25.56-1.56,39.84.98,20.74,6.65,33.12,15.18,33.12.87,0,1.45-.14,1.47-.14l.66-.21h.7c5.93-.11,10.45-2.87,13.93-7.46-17.96-3.9-22.33-19.63-22.33-33.7,0-18.5,9.25-104.52-4.11-201.4-6.47-46.91-14.27-73.54-20.61-88.58-7.41,18.37,3.06,82.96,10.97,131.74l.47,2.9h0Z"/>
        <path class="st2" d="M734.77,1360.49s22.37,18.61,48.88,0"/>
      </g>
      <g>
        <path class="st12" d="M1043.09,1387.77s9.3-1.54,10.67,6.54c1.38,8.09,7.92,71.96-7.92,73.34-15.84,1.38-15.2-14.52-15-65.28,0,0-2.56-14.26,12.25-14.6Z"/>
        <path class="st12" d="M1043.27,1406.02s-20.66,6.71-22.73-37.19c-2.07-43.9,11.88-67.66-3.62-163.21-11.32-69.82-22.73-138.42-4.13-144.62,18.59-6.2,26.25-9.74,41.61,64.34,19.85,95.77,20.54,145.01,19.51,184.78s.86,95.38-30.65,95.89h.01Z"/>
        <path class="st32" d="M1021.51,1204.87c10.44,64.38,7.67,96,5.23,123.9-1.15,13.15-2.23,25.56-1.56,39.84.98,20.74,6.65,33.12,15.19,33.12.87,0,1.45-.14,1.47-.14l.66-.21h.69c8.72-.15,14.39-6.04,18.15-15.1-10.61.14-21.17-2.78-22.54-13.64-2.79-22.02,4.7-79.41,0-141.07-3.71-48.72-21.71-128.76-29.11-160.23-6.63,19.69,3.59,82.77,11.36,130.64l.47,2.89h0Z"/>
        <path class="st2" d="M1020.38,1364.37s22.37,18.61,48.88,0"/>
      </g>
      <g>
        <path class="st27" d="M1054.28,808s30.99,16.74,38.56,39.71c7.58,22.96,1.03,60.49-45.62,97.51-46.66,37.02-74.2-66.28-63.18-83.5,11.02-17.22,39.25-37.88,39.94-39.94.69-2.07,30.3-13.77,30.3-13.77h0Z"/>
        <path class="st13" d="M237.37,715.9s-16.53,59.91,99.17,94c115.69,34.09,138.42,47.52,245.85,106.4,99.25,54.4,314.03,178.71,314.03,178.71,0,0,108.46-102.26,126.02-120.86,17.56-18.59,24.79-28.92,24.79-28.92,0,0-14.46-82.64,12.4-123.96s90.9-203.5-39.25-264.44c-130.16-60.95-327.24-122.92-372.28-116.73-45.04,6.2-88.43,16.53-117.35,28.92-28.92,12.4-43.39,8.26-69.21,33.06-25.82,24.79-40.29,38.22-54.75,52.68-14.46,14.46-169.41,161.14-169.41,161.14h-.01Z"/>
        <path class="st29" d="M596.8,912.15c-25.84-34.64-33.47-102.17-32.44-104.15,1.03-1.98-22.16,11.38-53.28,19.6-31.12,8.22-34.41-83.8-34.41-83.8,0,0-50.73,62.66-71.28,59.72s-27.01-71.05-27.01-71.05c-28.56-14.22-57.13-28.44-85.69-42.66-9.59,7.52-19.18,15.03-28.77,22.55-7.66,3.52-15.33,7.04-22.99,10.55.07,3.69.55,8.94,2.43,14.92.37,1.17,1.54,4.77,4.07,9.56.89,1.68,5.04,9.4,13.82,18.36,7.78,7.94,14.98,12.57,20.09,15.81,7.22,4.57,13.73,7.71,18.63,9.8,8.74,3.31,21.55,9.25,37.9,14.07,112.48,33.14,138.81,47.58,236.74,101.28l10.03,5.5c6.47,3.55,13.49,7.42,20.87,11.52-2.64-3.5-5.52-7.34-8.69-11.59h-.02Z"/>
        <path class="st28" d="M684.95,973.76s-175.56-140.27-114.96-289.02,386.83,53.71,395.19,63.36,60.7,20.66,78.6,32.37,15.84,40.8,15.84,40.8c0,0-16.33,21.1-15.74,57.64.59,36.53,3.34,66.32,3.34,66.32,0,0-86.77,98.65-150.81,149.78,0,0-186.72-104.24-211.46-121.25h0Z"/>
        <path class="st47" d="M532.46,606.06s-48.92,120.67,127.2,226.01,302.34,125.35,343.28,86.09c40.94-39.26,40.54-128.57,40.54-128.57l-511.02-183.53h0Z"/>
      </g>
      <g>
        <g>
          <path class="st8" d="M607.77,138.06c-2.45-.68-30.55-16.64-80.82,4.71-50.27,21.35-126.33,64.34-109.42,74.37s125.8-16.53,145.5-22.73,100.07-41.1,44.74-56.36h0Z"/>
          <path class="st30" d="M501.13,160.18s4.99,9.69,12.04,9.39c0,0-4.4,6.75-3.52,14.09,0,0-52.92,9.84-61.87,29.62,0,0,86.61-12.07,105.4-16.77,18.79-4.7,41.98-60.48,41.98-60.48l-21.73-4.34s-36.55,9.77-72.29,28.49h-.01,0Z"/>
          <path class="st8" d="M689.41,136.84s-30.93-36.08-72.94-28.5-79.33,18.68-78.94,24.46c.39,5.78,85.13,10.66,120.26,15.48,35.12,4.82,31.62-11.44,31.62-11.44h0Z"/>
          <path class="st10" d="M355.47,356.94s-71.62,66.11-65.42,28.23,144.62-196.27,231.39-187.31c86.77,8.95-90.21,131.53-90.21,131.53l-75.75,27.55h-.01Z"/>
          <path class="st43" d="M403.29,256.87s-21.14,35-22.61,39.81c0,0-76.33,62.06-83.67,82.02s6.75,13.8,26.72,8.81c19.96-4.99,83.38-48.44,83.38-48.44l110.58-136.17s-36.31-10.92-114.4,53.96h0Z"/>
          <path class="st11" d="M580.66,727.95s-16.53,145.99-64.73,146.68c-48.21.69-46.41-123.96-42.7-163.21,4.82-50.96,45.45-105.36,59.22-105.36s75.06,28.23,48.21,121.89Z"/>
          <path class="st44" d="M479.59,805.88s34.75-81.88,42.39-104.08l48.73,56.51,9.69-58.72-53.08-84.17-35.29,22.81-33.76,17.91,21.32,149.73h0Z"/>
          <path class="st11" d="M479.95,724.16s-12.49,114.93-73.9,107.56c-61.42-7.37-20.61-119.96-9.77-145.78,10.85-25.82,17.99-70.61,59.91-57.33,41.92,13.28,23.76,95.55,23.76,95.55h0Z"/>
          <path class="st44" d="M383.26,740.35s13.43,3.8,22.68-5.44c0,0-1.76,24.44,15.41,25.32s34.35-18.28,38.09-25.32c0,0,5.29,16.79,10.13,17.84,0,0,11.23-51.08,9.91-68.04-1.32-16.95-56.15-31.49-56.15-31.49,0,0-19.16,57.25-40.07,87.13h0Z"/>
          <path class="st20" d="M879.54,171.69s-56.47-70.24-125.33-79.2c-68.87-8.95-136.86,3.42-127.31,14.79,9.55,11.38,71.53,47.19,132.13,53.38,60.6,6.2,120.51,11.02,120.51,11.02h0Z"/>
          <path class="st33" d="M669.68,128.91s40.7-32.59,116.5-11.45c0,0-4.24-5.95-9.74-14.97,0,0,46.02,16.95,55.27,27.08s15.63,31.93,15.63,31.93l-150.9-23.08-26.76-9.5h0Z"/>
          <path class="st11" d="M441.21,582.13s-23.84,92.8-62.54,158.22-90.86,71.1-94.99,28.23,25.31-137.9,70.24-183.35c44.93-45.45,59.4-55.26,78.51-43.39,19.11,11.88,8.78,40.29,8.78,40.29h0Z"/>
          <path class="st42" d="M297.46,702.68s14.97-7.27,20.04-11.23c0,0,.88,13.43,10.79,14.53s36.99-8.81,51.96-24.88c0,0-.5,29.51,7.93,31.05,0,0,36.7-82.42,42.42-107.52,5.72-25.1,9.03-46.24,9.03-46.24l-97.54,38.53s-27.38,45.73-44.62,105.76h0Z"/>
          <path class="st11" d="M351.86,608.98s-84.7,113.11-103.81,113.11,9.3-148.75,51.91-210.21c42.61-61.46,50.87-70.76,81.35-61.98,30.47,8.78,8.26,108.46-29.44,159.08h-.01Z"/>
          <path class="st52" d="M267.44,596.11s30.53-12.92,41.1-24.66c0,0-9.69,56.96,4.4,79.56,0,0,50.2-62.24,61.95-87.49,11.74-25.25,13.88-126.4,13.88-126.4l-99.61,84.42s-22.02,70.75-21.73,74.57h.01,0Z"/>
          <path class="st10" d="M486.34,315.79s-42.34,29.31-63.51,67.86c-21.17,38.54-79.8,116.71-126.48,157.42-46.68,40.71-47.23,29.31-44.51,0,2.71-29.31,30.94-179.68,141.68-227.99s124.2-23.98,92.83,2.71h0Z"/>
          <path class="st37" d="M335.44,362.42s34.46-41.18,66.83-45.8,54.21,17.34,54.21,17.34c0,0-23.64,22.78-36.82,45.41-13.17,22.63-30.83,48.66-30.83,48.66,0,0-5.95-20.7-5.06-28.84s9.47-29.73,9.47-29.73c0,0-66.28,11.67-57.8-7.05h0Z"/>
          <path class="st10" d="M545.03,557.33s-14.98,80.57-63.53,135.84c-48.55,55.26-62.5,35.64-63.53,4.65s6.2-138.94,47-176.12c40.8-37.19,118.28-95.03,80.06,35.64h0Z"/>
          <path class="st42" d="M431.84,606.75s27.83-13.21,39.71-42.57c0,0,16.88,4.11,25.68,0,0,0,12.92,44.04,27.6,49.03,14.68,4.99,1.38,0,1.38,0l48.53-161.05-81.62,40.68s-47.65,42.85-61.29,113.91h.01Z"/>
          <path class="st15" d="M961.49,227.47s-22.73-82.64-68.18-108.81-108.12-40.63-95.72-16.53c12.4,24.1,105.27,117.01,128.04,122.55,22.77,5.54,35.86,2.78,35.86,2.78h0Z"/>
          <path class="st34" d="M849.56,155.42s21.16-8.53,37.01-2.8c0,0-11.01-23.49,0-32.55,0,0,52.18,32.55,58.35,43.34s24.88,71.78,24.88,71.78l-18.2,2.35-102.04-82.12h0Z"/>
          <path class="st10" d="M483.86,481.41s-41.9,106.4-107.87,147.2c0,0-37.05,27.89-40.15-5.16-3.1-33.06,10-170.11,87.8-218.48,148.4-92.25,77.66,39.26,60.21,76.44h0Z"/>
          <path class="st39" d="M446.82,542.64s-21.36-5.14-16.07-69.87c0,0-16.29-4.84-66.5,18.5,0,0,15.85-41.76,36.11-59.82s99.08-33.47,99.08-33.47l-20.04,92.04-32.59,52.62h.01Z"/>
          <path class="st8" d="M650.91,360.55s-51.13,13.43-73.86,63.53-61.46,92.97-89.87,106.91c-28.41,13.95-40.06-31.14-22.21-81.09,17.85-49.95,94-110.53,138.42-113.63s94-8.26,47.52,24.28h0Z"/>
          <path class="st45" d="M525.58,374.42s-58.51,52.05-63.35,105.94c0,0,30.9-75.01,128.59-85.65,0,0,32.6-22.98,62.9-40.59l-4.99-11.71-123.15,32.01h0Z"/>
          <path class="st23" d="M550.36,281.19s-40.11,13.76-96.5,69.55c-56.38,55.79-73.94,83.51-58.27,88.93s171.3-102.04,227.77-104.78,87.46-59.9,33.75-65.41-106.74,11.71-106.74,11.71h-.01Z"/>
          <path class="st8" d="M555.33,274.99s-48.12,47.52-98.85,64.73c-50.73,17.22-69.66,13.77-60.88-22.04s87.11-114.32,141.94-126.71,94.78-11.71,103.73,4.82-85.94,79.2-85.94,79.2h0Z"/>
          <path class="st31" d="M493.72,216.47s20.55,15.56,41.98,15.27c0,0-40.51,44.62-44.33,86.31,0,0,58.72-39.34,74.57-57.84,15.85-18.5,58.42-40.83,58.42-40.83l-70.17-29.33s-22.79,3.46-60.48,26.42h.01Z"/>
          <path class="st20" d="M733.54,299.13s-197.31,32.25-200.57-4.56c-3.27-36.8,84.49-99.98,151.98-88.28,67.49,11.71,107.68,79.05,48.6,92.83h0Z"/>
          <path class="st36" d="M587.41,235.15s15.63,10.79,34.79,10.57c0,0,19.67,41.25,55.49,45.95s100.7,0,100.7,0l-58.72-56.51-62.53-18.79-33.47-3.08s-31.71,18.35-36.26,21.87h0Z"/>
          <path class="st7" d="M1030.35,312.2s21.35-74.08-31.68-133.46c-53.03-59.39-113.88-67.07-101.23-52.01,46.79,55.71,74.37,123.36,79.88,141.66,5.51,18.3,25.48,48.66,53.03,43.81h0Z"/>
          <path class="st46" d="M965.18,228.16s-6.54-18.79-19.16-40.67c0,0,27.6,2.78,35.82,9.83,0,0-4.4-17.32-1.03-29.8,0,0,45.78,43.74,57.68,77.65s10.23,48.58,10.23,48.58l-46.85,10.76-36.69-76.35h0Z"/>
          <path class="st20" d="M661.24,222.65s-123.37,2.75-131.24-29.61c-7.87-32.37,85.69-71.62,154.95-57.16,69.26,14.46,110.58,37.19,123.66,58.54s-81.95,35.81-147.37,28.23h0Z"/>
          <path class="st33" d="M613.52,216.32s-10.14-17.48,0-33.31,62.11-16.27,62.11-16.27c0,0-15.63-19.38,9.25-25.76,0,0,28.18,3.08,52.85,16.95,24.66,13.87,42.72,53.51,42.72,53.51,0,0-108.8,10.86-166.92,4.88h0Z"/>
          <path class="st6" d="M786.18,291.51s-142.35-39.94-144.32-86.77c-1.97-46.83,180.52,10.33,225.97,37.19,45.45,26.86,77.82,68.87,43.39,79.2s-125.04-29.61-125.04-29.61h0Z"/>
          <path class="st48" d="M878.74,284.94s-13.83-14.3-27.48-27.49c-13.65-13.2-66.72-20.98-76.63-46.3,0,0,91.79,22.05,102.92,36.9s22.14,36.9,22.14,36.9h-20.96.01Z"/>
          <path class="st15" d="M854.75,234.36s-50.96-13.13-87.46-36.86c-36.5-23.74-66.8-67.81-39.25-70.57,27.55-2.75,115,23.41,151.5,40.63s98.48,76.44,59.91,79.88c-38.56,3.44-45.45-4.82-84.7-13.08h0Z"/>
          <path class="st34" d="M822.42,193.94c12.08-9.03,62.2-13.21,76.33-8.92,0,0,27.52,17.6,32.37,31.37,4.84,13.77-72.25,13.77-72.25,13.77,0,0-14.36-2.71-36.73-11.03-8.38-3.12-9.66-17.76.28-25.19h0Z"/>
          <path class="st48" d="M912.92,280.73s-140.04-4.84-213.14-27.16c0,0,75.74,32.29,91.3,33.76s132.99,17.17,132.99,17.17l-11.16-23.78h.01Z"/>
          <path class="st9" d="M936.01,312.2s-91.59-76.47-89.52-97.13,109.5-.69,137.04,17.22c27.55,17.9,61.98,81.26,53.71,96.41-8.26,15.15-70.24,6.26-101.23-16.5h0Z"/>
          <path class="st49" d="M941.03,312.72l-37.87-36.76s14.39,6.17,50.2,11.74c35.82,5.58,59.01-14.39,59.01-14.39,0,0,13.29,16.83,19.08,36.11s-57.25,17.03-57.25,17.03l-33.17-13.73h0Z"/>
          <path class="st16" d="M1028.29,328.7s30.3,15.84,55.78,0,11.71-46.83-15.15-86.08c-26.86-39.25-67.05-81.12-63.48-55.71s35.25,128.71,22.85,141.79h0Z"/>
          <path class="st48" d="M1031.83,279.48s17.73,3.56,31.18,1.14c13.43-2.42,19.27-7.71,19.27-7.71,0,0,9.69,16.73,10.02,28.62l-57.14,7.49s-1.82-23.41-3.33-29.54h0Z"/>
        </g>
        <g>
          <path class="st18" d="M965.18,359.69s20.91-21.57,46.93-13.6c33.74,10.33,16.34,47.17,23.76,50.96,79.05,40.35,200.52,103.78,228.98,140.16,41.32,52.83,34.09,179.89-85.74,237.73-119.83,57.85-230.35,95.64-376,57.12s-279.08-120.63-282.09-229.87,78.59-205.31,78.59-205.31c0,0,13.72-26.86,45.08-34.26,0,0,87.66-35.98,143.96-32.37s176.54,29.44,176.54,29.44h-.01Z"/>
          <path class="st4" d="M646.31,737.76c-120.23-78.49-100.93-231.58-100.93-231.58l-3.24,2.18c-10.27,28.46-17.4,60.53-16.49,93.7,3.11,112.76,145.97,190.42,278.63,225.51,39.42,10.42,76.87,15.49,114.5,15.49,46.05,0,89.04-7.59,132.06-20.78-164.39,17.06-289.09-9.15-404.55-84.52h.02,0Z"/>
          <path class="st4" d="M646.69,588.85s17.97,4.62,21.2,15.18c3.22,10.57,43.3,64.29,122.57,103.05,79.27,38.75,326.72,63.81,336.65,59.21,0,0-142-17.71-240.2-46.17-98.2-28.45-171.52-67.82-202.68-119.04-31.16-51.22-37.52-12.24-37.52-12.24h-.02,0Z"/>
          <g>
            <g>
              <path class="st50" d="M679.39,571.73c2.97,9.08,8.28,17.37,13.87,25.1,51.37,67.53,155.83,106.23,235.77,128.02,9.07,2.62,22.34,5.7,31.56,8.04,4.6,1.2,11.26,2.56,15.89,3.6,53.07,11.85,107.01,20,161.08,26.22,2.56.28,4.41,2.59,4.11,5.15-.29,2.52-2.54,4.33-5.05,4.1-43.62-4.06-87.15-9.46-130.41-16.98-9.1-1.46-23.19-4.17-32.37-6.05-4.75-.97-11.53-2.21-16.14-3.31-5.6-1.24-18.78-4.26-24.13-5.45-7.35-1.78-20.56-5.27-27.99-7.13-8.81-2.59-19.03-5.33-27.77-8.06-73.46-22.65-172.94-65.05-212.26-134.85-2.16-3.96-4.1-8.19-5.51-12.52-4.41-13.74,15.34-19.83,19.34-5.87h.01Z"/>
              <path class="st50" d="M643.22,595.47c.31-14.19,10.09-28.15,23.8-32.55,13.55-4.3,28.86.15,39.51,9.06,1.37,1.16,2.68,2.42,3.83,3.87-7.26-.3-13.78-.95-20.06-1.17-6.3-.2-12.25-.15-18.31,1.25-11.49,3.1-19.93,11.68-28.78,19.55h.01Z"/>
            </g>
            <path class="st26" d="M1126.25,624.05s-11.33-17.83-28.67-26.34c-22.63-11.1-29.18-29.44-18.85-36.41s27.37,2.32,39.77,24.53,7.75,38.22,7.75,38.22h0Z"/>
            <path class="st26" d="M1260.54,624.05s-9.89-22.09-8.52-34.35c1.29-11.58,9.56-13.43,15.49-10.07,5.94,3.36,11.1,28.15-6.97,44.42Z"/>
          </g>
        </g>
        <path class="st4" d="M573.06,443.74s46.97-33.76,65.18-37.29-5.87,31.94,21.73,79.97c27.6,48.03,80.44,59.19,130.94,59.19s112.53-10.58,129.66-53.73,58.64-142.13,58.64-142.13c0,0-297.07,6.2-325.47,14.42-28.4,8.22-42.24,12.94-80.66,79.56h-.02,0Z"/>
        <path class="st4" d="M1035.16,402.33s-6.61-1.89-6.17-10.7,1.03-19.82-3.38-25.54c-4.4-5.72-28.77-17.32-42.42,6.17-13.65,23.49-21.75,49.34-23.43,54.18l-1.68,4.83s48.44-29.4,77.07-28.94h.01Z"/>
        <g>
          <path class="st19" d="M687.23,342.99s-78.51,11.71-158.39,47.52c-36.56,16.39-124.65,57.16-134.29,61.29s-4.13-28.23,31.68-55.78,104.68-66.11,174.92-86.08c47.94-13.63,67.49-14.46,78.51-12.4,11.02,2.07,25.48,35.81,7.58,45.45h-.01Z"/>
          <path class="st17" d="M643.33,309.76s1.55,12.91,7.23,29.96c5.68,17.04,8.78,26.86,12.4,51.65s.52,108.46,74.89,130.67c74.37,22.21,158.56,12.91,193.17-44.42,34.6-57.33,55.78-111.05,71.79-112.59,16.01-1.55,32.02,2.07,33.06,32.02,0,0,85.1,42.74,112.01,58.48,26.91,15.75,74.94,46.35,74.94,46.35,0,0,19.13,3.63,31.53-45.95s14.46-85.22,21.18-93.48c6.71-8.26,9.3-10.33,11.36-25.31,2.07-14.98,1.55-29.96-16.01-35.12s-88.84-18.08-141-9.3c-52.17,8.78-92.45,25.31-150.81,16.01-58.36-9.3-107.43-23.24-199.88-23.76s-136.35,5.16-135.84,24.79h-.02Z"/>
          <path class="st5" d="M735.95,313.21s-39.25,1.03-40.97,32.02-.32,49.93.7,68.52,5.16,76.1,48.88,89.18c43.73,13.08,111.56,13.77,152.88-19.28,41.32-33.06,47.52-92.28,46.14-112.25s3.1-46.14-28.58-50.27c-31.68-4.13-101.92-13.08-179.05-7.92h0Z"/>
          <path class="st5" d="M1048.71,403.54s8.5-68.64,50.85-75.18,105.36-15.84,128.09-5.51,15.84,35.12,13.08,59.91-16.71,105.03-42.44,103.65c0,0-76.35-45.11-98.39-56.82s-51.19-26.05-51.19-26.05Z"/>
        </g>
      </g>
    </g>
  </g>
</svg>